<svg xmlns="http://www.w3.org/2000/svg" width="30" height="30" viewBox="0 0 30 30"><defs><style>.a{fill:#fff;opacity:0.58;}</style></defs><path class="a" d="M25.5,25.743V17.222a5.283,5.283,0,0,0-5.269-5.282,4.237,4.237,0,0,0-2.108.6,4.385,4.385,0,0,0-1.616,1.514V12.221h-4.5V25.742h4.5V17.785a2.23,2.23,0,0,1,.632-1.585,2.085,2.085,0,0,1,1.581-.669,2.2,2.2,0,0,1,1.616.669,2.168,2.168,0,0,1,.668,1.585v7.958ZM6.745,9.687a2.7,2.7,0,0,0,1.932-.775,2.529,2.529,0,0,0,.808-1.9,2.652,2.652,0,0,0-.808-1.937,2.711,2.711,0,0,0-3.865,0A2.649,2.649,0,0,0,4,7.011a2.525,2.525,0,0,0,.808,1.9A2.7,2.7,0,0,0,6.745,9.687ZM8.993,25.743V12.222H4.5V25.743h4.5ZM26.979.25a2.913,2.913,0,0,1,2.143.881A2.841,2.841,0,0,1,30,3.208V27.292a2.843,2.843,0,0,1-.879,2.077,2.916,2.916,0,0,1-2.142.881H3.021a2.913,2.913,0,0,1-2.143-.881A2.841,2.841,0,0,1,0,27.292V3.208A2.842,2.842,0,0,1,.879,1.131,2.916,2.916,0,0,1,3.021.25Z" transform="translate(0 -0.25)"/></svg>