<svg xmlns="http://www.w3.org/2000/svg" width="24.457" height="32.898" viewBox="0 0 24.457 32.898"><defs><style>.a{fill:#fff;}</style></defs><g transform="translate(-5.627 -1.238)"><path class="a" d="M17.854,8.971a4.5,4.5,0,1,0,4.5,4.5A4.5,4.5,0,0,0,17.854,8.971Zm0,6.75a2.25,2.25,0,1,1,2.25-2.25,2.25,2.25,0,0,1-2.25,2.25Z"/><path class="a" d="M26.5,4.817A12.229,12.229,0,0,0,7.608,20.139l8.5,13.051a2.083,2.083,0,0,0,3.49,0l8.5-13.051A12.229,12.229,0,0,0,26.5,4.817Zm-.286,14.094L17.854,31.747,9.493,18.911a9.979,9.979,0,1,1,16.722,0Z"/></g></svg>