<svg xmlns="http://www.w3.org/2000/svg" width="30" height="30" viewBox="0 0 30 30"><defs><style>.a{fill:#fefefe;opacity:0.576;}</style></defs><path class="a" d="M29.819,28.975,19.565,18.75,29.79,8.525a1.692,1.692,0,0,1,.234.85v18.75a1.879,1.879,0,0,1-.205.85ZM26.3,9.375h-.029V9.4l-7.5,7.5v-.029h-7.5V16.9l-7.5-7.5V9.375H3.746L1.9,7.529V1.875A1.789,1.789,0,0,1,2.456.542,1.825,1.825,0,0,1,3.774,0h22.5a1.812,1.812,0,0,1,1.333.542,1.812,1.812,0,0,1,.542,1.333V7.53ZM10.483,18.75.229,28.975a1.879,1.879,0,0,1-.205-.85V9.375a1.692,1.692,0,0,1,.234-.85Zm6.445,0L28.178,30H1.87L13.12,18.75Z" transform="translate(-0.024)"/></svg>