<svg xmlns="http://www.w3.org/2000/svg" width="30" height="30" viewBox="0 0 30 30"><defs><style>.a{opacity:0.577;}.b{fill:#fefefe;}</style></defs><g class="a"><path class="b" d="M24.875,18.613a6.25,6.25,0,1,1-6.25-6.25A6.25,6.25,0,0,1,24.875,18.613Z" transform="translate(-3.664 -3.665)"/><path class="b" d="M13.387,13.315a8.752,8.752,0,0,1,14.579,3.72h6.569V8.207a3.619,3.619,0,0,0-3.672-3.672H8.363A3.752,3.752,0,0,0,4.535,8.207v8.828h6.647A8.632,8.632,0,0,1,13.387,13.315Zm18.648-2.28a1,1,0,0,1-1,1h-3a1,1,0,0,1-1-1v-3a1,1,0,0,1,1-1h3a1,1,0,0,1,1,1Z" transform="translate(-4.535 -4.535)"/><path class="b" d="M25.762,24.189a8.779,8.779,0,0,1-12.373.006,8.774,8.774,0,0,1-2.562-6.16H4.535V29.207a3.884,3.884,0,0,0,3.828,3.828h22.5a3.752,3.752,0,0,0,3.672-3.828V18.035H28.324A8.766,8.766,0,0,1,25.762,24.189Z" transform="translate(-4.535 -3.035)"/></g></svg>